<svg id="logos" xmlns="http://www.w3.org/2000/svg" viewBox="0 0 451.1 162"><defs><style>.cls-1{fill:#fff;}.cls-2{isolation:isolate;}.cls-3{fill:#b6b6b6;}</style></defs><path class="cls-1" d="M92.8,168.2a81,81,0,1,1,81-81h0A81.11,81.11,0,0,1,92.8,168.2Zm0-146a65,65,0,1,0,65,65h0A65.13,65.13,0,0,0,92.8,22.2Z" transform="translate(-11.8 -6.2)"/><g class="cls-2"><path class="cls-1" d="M191.78,126.31h1.79l4.91,11.3h.06l4.92-11.3h1.83V139h-1.23V127.63h0L199,139H197.9l-5-11.38h0V139h-1.09Z" transform="translate(-11.8 -6.2)"/><path class="cls-1" d="M209.06,126.31h8.77v.87h-7.56v4.87h5.82v.87h-5.82v5.22h7.59V139h-8.8Z" transform="translate(-11.8 -6.2)"/><path class="cls-1" d="M220.94,126.31h4.15c4.67,0,7.12,1.95,7.12,6.11v.29c0,4.13-2.23,6.3-7.1,6.3h-4.17Zm4.2,11.81c4,0,5.78-1.61,5.78-5.28v-.42c0-3.78-2-5.22-5.94-5.22h-2.83v10.92Z" transform="translate(-11.8 -6.2)"/><path class="cls-1" d="M235.21,126.31h1.22V139h-1.22Z" transform="translate(-11.8 -6.2)"/><path class="cls-1" d="M239.38,132.8v-.32c0-4.37,2.7-6.36,6.65-6.36a8.57,8.57,0,0,1,3.67.7v.89A9.43,9.43,0,0,0,246,127c-3.24,0-5.29,1.65-5.29,5.28v.51c0,3.56,1.56,5.51,5.2,5.51a8.86,8.86,0,0,0,3.93-.83v.89a9.11,9.11,0,0,1-4.07.83C241.64,139.2,239.38,137,239.38,132.8Z" transform="translate(-11.8 -6.2)"/><path class="cls-1" d="M256.91,126.31h1.18l5.56,12.7h-1.27l-1.77-4h-6.4l-1.75,4H251.3Zm-2.32,7.78h5.64l-2.81-6.44Z" transform="translate(-11.8 -6.2)"/><path class="cls-1" d="M266,126.31h1.21v11.83h7.23V139H266Z" transform="translate(-11.8 -6.2)"/></g><g class="cls-2"><path class="cls-1" d="M283.37,126.31h1.18l5.56,12.7h-1.28l-1.76-4h-6.41l-1.74,4h-1.16ZM281,134.09h5.65l-2.81-6.44Z" transform="translate(-11.8 -6.2)"/></g><g class="cls-2"><path class="cls-1" d="M290.64,132.8v-.32c0-4.37,2.71-6.36,6.66-6.36a8.55,8.55,0,0,1,3.66.7v.89a9.43,9.43,0,0,0-3.73-.7c-3.24,0-5.29,1.65-5.29,5.28v.51c0,3.56,1.56,5.51,5.2,5.51a8.86,8.86,0,0,0,3.93-.83v.89a9.06,9.06,0,0,1-4.06.83C292.9,139.2,290.64,137,290.64,132.8Z" transform="translate(-11.8 -6.2)"/><path class="cls-1" d="M307.59,127.18h-4.87v-.87h11v.87h-4.86V139h-1.23Z" transform="translate(-11.8 -6.2)"/><path class="cls-1" d="M316.21,126.31h1.23V139h-1.23Z" transform="translate(-11.8 -6.2)"/><path class="cls-1" d="M320.38,132.8v-.28c0-4.07,2.48-6.4,6.5-6.4s6.41,2.25,6.41,6.4v.28c0,4-2.48,6.4-6.46,6.4S320.38,137,320.38,132.8ZM332,133v-.44c0-3.45-1.7-5.51-5.18-5.53-3.28,0-5.13,2-5.13,5.34v.45c0,3.45,1.7,5.55,5.18,5.55C330.18,138.33,332,136.27,332,133Z" transform="translate(-11.8 -6.2)"/><path class="cls-1" d="M336.24,126.31h1.42l8.15,11h0v-11H347V139H345.7l-8.33-11.3h0V139h-1.09Z" transform="translate(-11.8 -6.2)"/><path class="cls-1" d="M355.75,132.8v-.28c0-4.07,2.48-6.4,6.5-6.4s6.4,2.25,6.4,6.4v.28c0,4-2.48,6.4-6.45,6.4S355.75,137,355.75,132.8Zm11.61.16v-.44c0-3.45-1.7-5.51-5.18-5.53-3.28,0-5.14,2-5.14,5.34v.45c0,3.45,1.7,5.55,5.18,5.55C365.55,138.33,367.36,136.27,367.36,133Z" transform="translate(-11.8 -6.2)"/><path class="cls-1" d="M371.6,126.31H373l8.15,11h0v-11h1.12V139h-1.25l-8.33-11.3h0V139h-1.1Z" transform="translate(-11.8 -6.2)"/><path class="cls-1" d="M389.66,127.18H384.8v-.87h11v.87h-4.87V139h-1.23Z" transform="translate(-11.8 -6.2)"/><path class="cls-1" d="M397.37,132.8v-.28c0-4.07,2.47-6.4,6.49-6.4s6.41,2.25,6.41,6.4v.28c0,4-2.48,6.4-6.45,6.4S397.37,137,397.37,132.8ZM409,133v-.44c0-3.45-1.69-5.51-5.17-5.53-3.29,0-5.14,2-5.14,5.34v.45c0,3.45,1.7,5.55,5.18,5.55S409,136.27,409,133Z" transform="translate(-11.8 -6.2)"/><path class="cls-1" d="M413.2,126.31h1.2v11.83h7.23V139H413.2Z" transform="translate(-11.8 -6.2)"/><path class="cls-1" d="M423.47,132.8v-.28c0-4.07,2.48-6.4,6.49-6.4s6.41,2.25,6.41,6.4v.28c0,4-2.48,6.4-6.45,6.4S423.47,137,423.47,132.8Zm11.61.16v-.44c0-3.45-1.7-5.51-5.18-5.53-3.28,0-5.14,2-5.14,5.34v.45c0,3.45,1.7,5.55,5.18,5.55C433.27,138.33,435.08,136.27,435.08,133Z" transform="translate(-11.8 -6.2)"/><path class="cls-1" d="M438.45,132.86v-.28c0-4.51,2.95-6.46,6.87-6.46a9.18,9.18,0,0,1,3.82.7v.91a9.38,9.38,0,0,0-3.88-.72c-3.84,0-5.52,2.27-5.52,5.43v.4c0,3.33,1.41,5.47,5.56,5.47a11.68,11.68,0,0,0,3.17-.41V134h-3.39v-.87h4.62v5.43a15.2,15.2,0,0,1-4.42.66C441,139.2,438.45,137.1,438.45,132.86Z" transform="translate(-11.8 -6.2)"/><path class="cls-1" d="M456.67,133.83l-5-7.52h1.28l4.39,6.55h.05l4.33-6.55h1.21l-5,7.52V139h-1.2Z" transform="translate(-11.8 -6.2)"/></g><g class="cls-2"><path class="cls-1" d="M199.54,35.76l.57,5.05a14,14,0,0,1,6.61-4.67,29.3,29.3,0,0,1,9.78-1.45q7.06,0,11.5,2.47a14.44,14.44,0,0,1,6.38,6.77q3.75-5.48,8.31-7.36a28.1,28.1,0,0,1,10.81-1.88q8,0,12.41,2.58a13.72,13.72,0,0,1,6.2,7.57,39.19,39.19,0,0,1,1.77,12.85v41h-5.69V57.58a35.5,35.5,0,0,0-1.26-10.75,9.2,9.2,0,0,0-4.49-5.48c-2.17-1.14-5.34-1.72-9.51-1.72q-16.05,0-16.05,16.34V98.64h-5.69V57.58a33.77,33.77,0,0,0-1.25-10.1,10.33,10.33,0,0,0-4.56-5.86q-3.3-2-9.44-2-8.88,0-12.41,3.55T200,53.82V98.64h-5.69V35.76Z" transform="translate(-11.8 -6.2)"/><path class="cls-1" d="M333.3,90.79a17.81,17.81,0,0,1-7.91,7,30.4,30.4,0,0,1-11.67,1.93q-8.66,0-13.61-4t-4.95-12.63q0-9.78,7.34-14.13t21.35-4.35c2.73,0,5.69.1,8.88.32V55.43q0-8.49-3.36-12.2t-11.1-3.71q-7.51,0-11,3.12t-3.48,11.61h-5.46q0-10.11,4.67-14.83t15.25-4.73q10.25,0,15.08,4.89t4.84,15.74V98.64h-4.78ZM323.05,69.51q-11.26,0-16.73,3.39c-3.64,2.25-5.47,5.68-5.47,10.26q0,6,3.65,8.76t11.27,2.74a17.81,17.81,0,0,0,9.73-2.42,14.58,14.58,0,0,0,5.52-6,16.24,16.24,0,0,0,1.71-7.1V70.05C328.78,69.69,325.56,69.51,323.05,69.51Z" transform="translate(-11.8 -6.2)"/><path class="cls-1" d="M372.91,66.18,355.49,35.76h6.38l8.19,14.73,6.27,12,6.6-12.36,8.31-14.4h6.37L379.74,66.18l18.9,32.46H392l-9.1-16.23-6.6-12.58-7.06,13.22-8.65,15.59h-6.26Z" transform="translate(-11.8 -6.2)"/><path class="cls-1" d="M420.15,97.56a13.69,13.69,0,0,1-6.77-7.25q-2.22-5.1-2.22-14.14V58.12q0-8.82,2.28-13.92a14.14,14.14,0,0,1,6.83-7.31q4.55-2.2,12-2.2t12.06,2.15a13.66,13.66,0,0,1,6.78,7.31q2.22,5.15,2.22,14.29V76.17q0,12.8-5,18.17t-16,5.37Q424.7,99.71,420.15,97.56Zm21.52-4.73a10.3,10.3,0,0,0,4.61-6A36.62,36.62,0,0,0,447.58,76V58.44a42,42,0,0,0-1.13-11.12A9.16,9.16,0,0,0,442,41.57c-2.2-1.22-5.47-1.83-9.79-1.83q-6.15,0-9.45,1.83a9.8,9.8,0,0,0-4.61,5.8,36,36,0,0,0-1.31,10.86V75.74A43.1,43.1,0,0,0,418,87a9.43,9.43,0,0,0,4.44,5.86q3.3,1.88,9.79,1.88C436.32,94.77,439.46,94.12,441.67,92.83Z" transform="translate(-11.8 -6.2)"/></g><g id="oFuDpS.tif"><path class="cls-1" d="M104.4,80.3l-.3.3L88.8,95.9c-7.7,7.7-15.3,15.4-23,23a7.19,7.19,0,0,0-2.1,7.2,7.47,7.47,0,0,0,8.5,5.7,8.14,8.14,0,0,0,4.2-2.2l33-33,.5-.5a7.66,7.66,0,0,0,2-4.7,6.93,6.93,0,0,0-2-5.3l-5.4-5.4C104.5,80.5,104.5,80.4,104.4,80.3ZM80.8,101.7c.1-.1.2-.3.3-.4,3.5-3.6,7.1-7.1,10.7-10.7l12.9-12.9,11-11c1.4-1.4,2.8-2.7,4.1-4.1a7.53,7.53,0,0,0-10.9-10.4L95,66.1c-6.6,6.5-13,13-19.5,19.4a7.66,7.66,0,0,0-.7,10.2,18.78,18.78,0,0,0,2.4,2.5c1.2,1.1,2.3,2.3,3.6,3.5Zm13,13c.1.1.1.2.2.2l14.7,14.7.4.4a7.54,7.54,0,0,0,10.2-11.1l-14.8-14.8c-.1-.1-.2-.1-.2-.2ZM80.7,77.8,91.3,67.2l-.1-.1L76.4,52.3a7.35,7.35,0,0,0-7-2.1,7.51,7.51,0,0,0-5.7,8.9,8.43,8.43,0,0,0,2.1,3.8L80.4,77.5Q80.55,77.8,80.7,77.8Zm28.4,21.4h18.6a9.7,9.7,0,0,0,1.7-.1,8.36,8.36,0,0,0-1.5-16.6H109l.3.3c.7.7,1.4,1.4,2,2.1a8.39,8.39,0,0,1,2.3,7.4,9.37,9.37,0,0,1-2.7,5.2c-.6.6-1.1,1.1-1.8,1.7ZM75.2,83.4h0l-.4-.1H56.6a4.87,4.87,0,0,0-1.2.1,7.5,7.5,0,0,0,1.2,14.9H74.9a9.43,9.43,0,0,1-3.5-7.5A10.54,10.54,0,0,1,75.2,83.4Z" transform="translate(-11.8 -6.2)"/><path class="cls-3" d="M104.4,80.3l.2.2,5.4,5.4a6.58,6.58,0,0,1,2,5.3,7.43,7.43,0,0,1-2,4.7c-.2.2-.3.4-.5.5l-33,33a6.91,6.91,0,0,1-4.2,2.2,7.39,7.39,0,0,1-8.5-5.7,7.47,7.47,0,0,1,2.1-7.2c7.7-7.7,15.3-15.4,23-23l15.3-15.3C104.2,80.5,104.3,80.4,104.4,80.3Z" transform="translate(-11.8 -6.2)"/><path class="cls-1" d="M80.8,101.7l-3.5-3.5c-.8-.8-1.6-1.6-2.4-2.5a7.67,7.67,0,0,1,.7-10.2L94.9,66.2l13.9-13.9a7.5,7.5,0,0,1,10.8,10.4c-1.3,1.4-2.7,2.7-4.1,4.1l-11,11L91.6,90.7,80.9,101.4C81,101.4,80.9,101.6,80.8,101.7Z" transform="translate(-11.8 -6.2)"/><path class="cls-1" d="M93.8,114.7l10.6-10.6.2.2,14.8,14.8a7.46,7.46,0,0,1,.1,10.6,7.59,7.59,0,0,1-10.4.4c-.2-.1-.3-.3-.4-.4L94,115A1.24,1.24,0,0,0,93.8,114.7Z" transform="translate(-11.8 -6.2)"/><path class="cls-3" d="M80.7,77.8a1.44,1.44,0,0,1-.3-.2L65.8,63a7.46,7.46,0,0,1-.2-10.6,6.85,6.85,0,0,1,3.8-2.1,7.28,7.28,0,0,1,7,2.1c4.9,4.9,9.9,9.8,14.8,14.8l.1.1Z" transform="translate(-11.8 -6.2)"/><path class="cls-1" d="M109.1,99.2l1.7-1.7a9.71,9.71,0,0,0,2.7-5.2,8.39,8.39,0,0,0-2.3-7.4c-.7-.7-1.4-1.4-2-2.1l-.3-.3h18.9a8.37,8.37,0,0,1,1.6,16.6,9.15,9.15,0,0,1-1.7.1H109.1Z" transform="translate(-11.8 -6.2)"/><path class="cls-3" d="M75.2,83.4a9.33,9.33,0,0,0-3.6,7.4,9.14,9.14,0,0,0,3.5,7.5H56.8a7.5,7.5,0,0,1-1.2-14.9,4.87,4.87,0,0,1,1.2-.1H75l.2.1Z" transform="translate(-11.8 -6.2)"/></g></svg>